<mxfile host="app.diagrams.net" modified="2023-07-15T16:21:23.338Z" agent="Mozilla/5.0 (Windows NT 10.0; Win64; x64) AppleWebKit/537.36 (KHTML, like Gecko) Chrome/114.0.0.0 Safari/537.36" etag="CSAlzSRRi8-5-Fb8nne5" version="21.6.2" type="github">
  <diagram name="Page-1" id="2c0d36ab-eaac-3732-788b-9136903baeff">
    <mxGraphModel dx="4707.5" dy="1166" grid="1" gridSize="10" guides="1" tooltips="1" connect="1" arrows="1" fold="1" page="1" pageScale="1.5" pageWidth="1169" pageHeight="827" background="none" math="0" shadow="0">
      <root>
        <mxCell id="0" />
        <mxCell id="1" parent="0" />
        <mxCell id="2" value="Home" style="rounded=1;fillColor=#23445D;gradientColor=none;strokeColor=none;fontColor=#FFFFFF;fontStyle=1;fontFamily=Tahoma;fontSize=14" parent="1" vertex="1">
          <mxGeometry x="557" y="160" width="190" height="80" as="geometry" />
        </mxCell>
        <mxCell id="4" value="Chat Bot" style="rounded=1;fillColor=#23445D;gradientColor=none;strokeColor=none;fontColor=#FFFFFF;fontStyle=1;fontFamily=Tahoma;fontSize=14" parent="1" vertex="1">
          <mxGeometry x="1373.4999999999998" y="310" width="190" height="80" as="geometry" />
        </mxCell>
        <mxCell id="9" value="" style="edgeStyle=elbowEdgeStyle;elbow=vertical;strokeWidth=2;rounded=0" parent="1" source="2" target="4" edge="1">
          <mxGeometry x="337" y="215.5" width="100" height="100" as="geometry">
            <mxPoint x="137" y="290" as="sourcePoint" />
            <mxPoint x="237" y="190" as="targetPoint" />
            <Array as="points">
              <mxPoint x="940" y="274.5" />
              <mxPoint x="1250" y="274.5" />
            </Array>
          </mxGeometry>
        </mxCell>
        <mxCell id="10" value="Create Post" style="rounded=1;fillColor=#23445D;gradientColor=none;strokeColor=none;fontColor=#FFFFFF;fontStyle=1;fontFamily=Tahoma;fontSize=14" parent="1" vertex="1">
          <mxGeometry x="673" y="310" width="190" height="80" as="geometry" />
        </mxCell>
        <mxCell id="12" value="About" style="rounded=1;fillColor=#23445D;gradientColor=none;strokeColor=none;fontColor=#FFFFFF;fontStyle=1;fontFamily=Tahoma;fontSize=14" parent="1" vertex="1">
          <mxGeometry x="439.9999999999999" y="310" width="190" height="80" as="geometry" />
        </mxCell>
        <mxCell id="13" value="Profile Page" style="rounded=1;fillColor=#23445D;gradientColor=none;strokeColor=none;fontColor=#FFFFFF;fontStyle=1;fontFamily=Tahoma;fontSize=14" parent="1" vertex="1">
          <mxGeometry x="210" y="310" width="190" height="80" as="geometry" />
        </mxCell>
        <mxCell id="14" value="Edit Post" style="rounded=1;fillColor=#23445D;gradientColor=none;strokeColor=none;fontColor=#FFFFFF;fontStyle=1;fontFamily=Tahoma;fontSize=14" parent="1" vertex="1">
          <mxGeometry x="240" y="440" width="130" height="60" as="geometry" />
        </mxCell>
        <mxCell id="59" value="" style="edgeStyle=elbowEdgeStyle;elbow=vertical;strokeWidth=2;rounded=0" parent="1" source="2" target="12" edge="1">
          <mxGeometry x="347" y="225.5" width="100" height="100" as="geometry">
            <mxPoint x="661.9999999999999" y="250" as="sourcePoint" />
            <mxPoint x="1266.9999999999998" y="320" as="targetPoint" />
          </mxGeometry>
        </mxCell>
        <mxCell id="61" value="" style="edgeStyle=elbowEdgeStyle;elbow=vertical;strokeWidth=2;rounded=0" parent="1" source="2" target="13" edge="1">
          <mxGeometry x="-23" y="135.5" width="100" height="100" as="geometry">
            <mxPoint x="-223" y="210" as="sourcePoint" />
            <mxPoint x="-123" y="110" as="targetPoint" />
          </mxGeometry>
        </mxCell>
        <mxCell id="62" value="" style="edgeStyle=elbowEdgeStyle;elbow=vertical;strokeWidth=2;rounded=0" parent="1" source="13" target="14" edge="1">
          <mxGeometry x="-23" y="135.5" width="100" height="100" as="geometry">
            <mxPoint x="-223" y="210" as="sourcePoint" />
            <mxPoint x="-123" y="110" as="targetPoint" />
          </mxGeometry>
        </mxCell>
        <mxCell id="cqh0oHXHMcF9_KyOA263-123" value="" style="edgeStyle=elbowEdgeStyle;elbow=vertical;strokeWidth=2;rounded=0;entryX=0.5;entryY=0;entryDx=0;entryDy=0;" edge="1" parent="1" target="10">
          <mxGeometry x="337" y="215.5" width="100" height="100" as="geometry">
            <mxPoint x="652" y="234.5" as="sourcePoint" />
            <mxPoint x="917" y="310" as="targetPoint" />
            <Array as="points">
              <mxPoint x="600" y="274" />
              <mxPoint x="910" y="274" />
            </Array>
          </mxGeometry>
        </mxCell>
        <mxCell id="cqh0oHXHMcF9_KyOA263-124" value="" style="edgeStyle=elbowEdgeStyle;elbow=vertical;strokeWidth=2;rounded=0;entryX=0.572;entryY=0.01;entryDx=0;entryDy=0;entryPerimeter=0;" edge="1" parent="1" target="cqh0oHXHMcF9_KyOA263-129">
          <mxGeometry x="337" y="215.5" width="100" height="100" as="geometry">
            <mxPoint x="650" y="240" as="sourcePoint" />
            <mxPoint x="1600" y="304.5" as="targetPoint" />
            <Array as="points">
              <mxPoint x="938" y="274" />
              <mxPoint x="1248" y="274" />
            </Array>
          </mxGeometry>
        </mxCell>
        <mxCell id="cqh0oHXHMcF9_KyOA263-127" value="" style="edgeStyle=elbowEdgeStyle;elbow=vertical;strokeWidth=2;rounded=0;entryX=0.5;entryY=0;entryDx=0;entryDy=0;" edge="1" parent="1">
          <mxGeometry x="-23" y="135.5" width="100" height="100" as="geometry">
            <mxPoint x="655" y="240" as="sourcePoint" />
            <mxPoint x="-140" y="310" as="targetPoint" />
            <Array as="points">
              <mxPoint x="-255" y="274.5" />
            </Array>
          </mxGeometry>
        </mxCell>
        <mxCell id="cqh0oHXHMcF9_KyOA263-128" value="Â Other User Profile Page" style="rounded=1;fillColor=#23445D;gradientColor=none;strokeColor=none;fontColor=#FFFFFF;fontStyle=1;fontFamily=Tahoma;fontSize=14" vertex="1" parent="1">
          <mxGeometry x="-20" y="310" width="190" height="80" as="geometry" />
        </mxCell>
        <mxCell id="cqh0oHXHMcF9_KyOA263-129" value="Sign in" style="rounded=1;fillColor=#23445D;gradientColor=none;strokeColor=none;fontColor=#FFFFFF;fontStyle=1;fontFamily=Tahoma;fontSize=14" vertex="1" parent="1">
          <mxGeometry x="903" y="310" width="190" height="80" as="geometry" />
        </mxCell>
        <mxCell id="cqh0oHXHMcF9_KyOA263-132" value="Sign Up" style="rounded=1;fillColor=#23445D;gradientColor=none;strokeColor=none;fontColor=#FFFFFF;fontStyle=1;fontFamily=Tahoma;fontSize=14" vertex="1" parent="1">
          <mxGeometry x="1133" y="310" width="190" height="80" as="geometry" />
        </mxCell>
        <mxCell id="cqh0oHXHMcF9_KyOA263-133" value="" style="edgeStyle=elbowEdgeStyle;elbow=vertical;strokeWidth=2;rounded=0;" edge="1" parent="1" target="cqh0oHXHMcF9_KyOA263-132">
          <mxGeometry x="337" y="215.5" width="100" height="100" as="geometry">
            <mxPoint x="650" y="239.5" as="sourcePoint" />
            <mxPoint x="1049" y="310" as="targetPoint" />
            <Array as="points">
              <mxPoint x="938" y="273.5" />
              <mxPoint x="1248" y="273.5" />
            </Array>
          </mxGeometry>
        </mxCell>
        <mxCell id="cqh0oHXHMcF9_KyOA263-134" value="" style="edgeStyle=elbowEdgeStyle;elbow=vertical;strokeWidth=2;rounded=0;" edge="1" parent="1">
          <mxGeometry x="-23" y="135.5" width="100" height="100" as="geometry">
            <mxPoint x="650" y="240" as="sourcePoint" />
            <mxPoint x="60" y="310" as="targetPoint" />
            <Array as="points">
              <mxPoint x="-260" y="274.5" />
            </Array>
          </mxGeometry>
        </mxCell>
        <mxCell id="cqh0oHXHMcF9_KyOA263-135" value="Groups" style="rounded=1;fillColor=#23445D;gradientColor=none;strokeColor=none;fontColor=#FFFFFF;fontStyle=1;fontFamily=Tahoma;fontSize=14" vertex="1" parent="1">
          <mxGeometry x="-240" y="310" width="190" height="80" as="geometry" />
        </mxCell>
        <mxCell id="cqh0oHXHMcF9_KyOA263-139" value="Create Group" style="rounded=1;fillColor=#23445D;gradientColor=none;strokeColor=none;fontColor=#FFFFFF;fontStyle=1;fontFamily=Tahoma;fontSize=14" vertex="1" parent="1">
          <mxGeometry x="-210" y="440" width="130" height="60" as="geometry" />
        </mxCell>
        <mxCell id="cqh0oHXHMcF9_KyOA263-143" value="" style="edgeStyle=elbowEdgeStyle;elbow=vertical;rounded=0;strokeWidth=2" edge="1" parent="1">
          <mxGeometry x="-23" y="135.5" width="100" height="100" as="geometry">
            <mxPoint x="-145.5" y="390" as="sourcePoint" />
            <mxPoint x="-145.5" y="440" as="targetPoint" />
          </mxGeometry>
        </mxCell>
        <mxCell id="cqh0oHXHMcF9_KyOA263-145" value="Group Page" style="rounded=1;fillColor=#23445D;gradientColor=none;strokeColor=none;fontColor=#FFFFFF;fontStyle=1;fontFamily=Tahoma;fontSize=14" vertex="1" parent="1">
          <mxGeometry x="-210" y="550" width="130" height="60" as="geometry" />
        </mxCell>
        <mxCell id="cqh0oHXHMcF9_KyOA263-148" value="" style="edgeStyle=elbowEdgeStyle;elbow=vertical;rounded=0;strokeWidth=2" edge="1" parent="1">
          <mxGeometry x="-23" y="135.5" width="100" height="100" as="geometry">
            <mxPoint x="-145.5" y="500" as="sourcePoint" />
            <mxPoint x="-145.5" y="550" as="targetPoint" />
          </mxGeometry>
        </mxCell>
      </root>
    </mxGraphModel>
  </diagram>
</mxfile>
